<mxfile host="app.diagrams.net" modified="2024-04-11T00:52:51.075Z" agent="Mozilla/5.0 (Windows NT 10.0; Win64; x64) AppleWebKit/537.36 (KHTML, like Gecko) Chrome/123.0.0.0 Safari/537.36" version="24.2.3" etag="BhP0UEd2-7ipU-xb2qwv" type="github">
  <diagram name="PÃ¡gina-1" id="EOJfC6Es2ohc6d2JXz5e">
    <mxGraphModel>
      <root>
        <mxCell id="0" />
        <mxCell id="1" parent="0" />
      </root>
    </mxGraphModel>
  </diagram>
</mxfile>
